# xmcd
#
# Track frame offsets:
#	150
#	28068
#	46340
#	67337
#	83054
#	100355
#	119995
#	137853
#	156011
#	176206
#	189420
#	208905
#	221171
#
# Disc length: 3193 seconds
#
# Revision: 0
# Processed by: cddbd v1.5.2PL0 Copyright (c) Steve Scherf et al.
# Submitted via: EZCDAudioConverter 2.1.7.1
#
DISCID=d10c770d
DTITLE=Ngozi Family - Day Of Judgement
DYEAR=1900
DGENRE=
TTITLE0=Day Of Judgement
TTITLE1=Hi Babe
TTITLE2=I Wanna Know
TTITLE3=Kumanda Kwa Bambo Wanga
TTITLE4=Tikondane
TTITLE5=Bwanawe
TTITLE6=Let Me Know
TTITLE7=We Wonna Give It To Her
TTITLE8=I'm On My Way
TTITLE9=She Looks So Crazy
TTITLE10=Sunka Mulamu
TTITLE11=We Were Not Told
TTITLE12=I've Been Looking For You
EXTD=
EXTT0=
EXTT1=
EXTT2=
EXTT3=
EXTT4=
EXTT5=
EXTT6=
EXTT7=
EXTT8=
EXTT9=
EXTT10=
EXTT11=
EXTT12=
PLAYORDER=
